<svg id="your-house-logo" data-name="your-house-logo" xmlns="http://www.w3.org/2000/svg" viewBox="0 0 116.33 69.93"><defs><style>.cls-1{fill:#1d2e50;}</style></defs><title>logo</title><path class="cls-1" d="M117.48,71.05s-1.78-.7-4.86-2c-1.53-.72-3.46-1.28-5.61-2.08s-4.65-1.5-7.34-2.31l-2.06-.62-2.17-.5-4.54-1.1c-1.57-.36-3.19-.59-4.84-.91s-3.33-.65-5.06-.82L75.75,60c-1.78-.19-3.59-.27-5.4-.44l-2.74-.22c-.91,0-1.83,0-2.75-.07l-5.54-.15-5.56.15c-.93,0-1.87,0-2.79.08l-2.71.22c-1.81.16-3.6.25-5.37.44l-5.25.69c-1.73.16-3.41.54-5.06.82s-3.27.55-4.84.9l-4.54,1.1L21,64.06,19,64.67c-2.69.82-5.2,1.48-7.34,2.32S7.53,68.36,6,69.06c-3.07,1.29-4.86,2-4.86,2s1.63-1,4.55-2.82a57.67,57.67,0,0,1,5.39-2.88l1.63-.82.86-.43.89-.38,3.84-1.57,2.05-.83,2.16-.73,4.57-1.47c1.57-.48,3.21-.84,4.88-1.28s3.38-.86,5.15-1.13l5.35-.93c1.82-.26,3.69-.41,5.56-.61l2.82-.29c.93-.07,1.86-.08,2.79-.11l5.67-.19,5.68.19c1,0,1.89,0,2.83.12l2.8.28c1.86.2,3.71.35,5.53.62l5.35.93a52.61,52.61,0,0,1,5.14,1.13c1.67.44,3.32.8,4.89,1.27l4.57,1.48,2.16.73,2,.83,3.83,1.57.9.38.86.42,1.64.82c2.11,1.07,4,2,5.39,2.88C115.84,70,117.48,71.05,117.48,71.05Z" transform="translate(-1.16 -1.12)"/><path class="cls-1" d="M48.3,45.62h5.05v-5H48.3Zm8.39,0h5.05v-5H56.69ZM115.84,56.9,94.26,35.64V13.84L83.87,3.45v22L63.26,5.1l-4-4-4,4L2.59,56.9,59.22,17.66ZM59.32,5.47V14L23.65,39.83Zm-11,32.2h5.05V32.62H48.3Zm8.39,0h5.05V32.62H56.69Zm8.39,0h5V32.62h-5Zm0,7.95h5v-5h-5Z" transform="translate(-1.16 -1.12)"/></svg>