<svg id="Warstwa_1" data-name="Warstwa 1" xmlns="http://www.w3.org/2000/svg" viewBox="0 0 200.35 37.41"><defs><style>.cls-1{fill:#1d2d50;fill-rule:evenodd;}</style></defs><title>logo-your-house</title><path class="cls-1" d="M71.24,21.19l-8.17,6.37-4.49,3.49L40.24,17.59l9.23,1.14,2.66.3L63.4,20.3Zm57.16,0,8.18,6.37,4.49,3.49L159.4,17.59l-9.23,1.14-2.65.3L136.25,20.3Z" transform="translate(0.35 -2.65)"/><polygon class="cls-1" points="100.18 10.8 100.18 10.88 100.18 12.32 128.06 33.8 129.2 33.17 100.18 10.8 100.18 10.8"/><path class="cls-1" d="M99.82,13.45V15L72,36.46l-1.15-.64ZM45,25.94,26.68,40.06h-2L44,25.18l1-.76,1,.76L56.11,33l-1,.76Zm109.64,0L173,40.06h2L155.63,25.18l-1-.76-1,.76L143.54,33l1,.76Z" transform="translate(0.35 -2.65)"/><path class="cls-1" d="M47.62,35.25h.46v2.4H45.25v-2.4Zm-2.94,0v2.3l-.12.1H41.85v-2.4Zm0-.56H41.85v-.16a3.14,3.14,0,0,1,2.83-3.11Zm55.77-5.36h6.3V29a7,7,0,0,0-6.3-6.89ZM92.9,35.89V30.58h6.3v5.31Zm6.3-6.56H92.9V29a7,7,0,0,1,6.3-6.89Zm7.55,6.56V30.58h-6.3v5.31ZM152,35.25h-.46v2.4h2.84v-2.4Zm2.94,0v2.3l.13.1h2.71v-2.4Zm0-.56h2.84v-.16A3.14,3.14,0,0,0,155,31.42Zm-.56,0V31.42a3.14,3.14,0,0,0-2.84,3.11v.16Zm-109.15,0V31.42a3.14,3.14,0,0,1,2.83,3.11v.16Z" transform="translate(0.35 -2.65)"/><path class="cls-1" d="M99.82,2.65,76.6,20.74,66.13,28.9l-4.48,3.5-3.22,2.5-6.62,5.16H71.49l-6.83-3.31,6-4.35L84.44,21.63l15.38-12h0l15.38,12L129,32.4l6,4.35-6.83,3.31h19.68l-6.63-5.16L138,32.4l-4.49-3.5L123,20.74,119.47,18V8.87H114v4.84L99.82,2.65ZM38.41,19.31,42.9,22.8,20.75,40.06H-.35L16.22,36.6l8.71-6.79V21.86h5.46v3.7Zm122.82,0-4.49,3.49,22.15,17.26H200L183.43,36.6l-8.71-6.79V21.86h-5.46v3.7Z" transform="translate(0.35 -2.65)"/></svg>