<svg id="your-house-logo" data-name="your-house-logo" xmlns="http://www.w3.org/2000/svg" viewBox="0 0 191.95 60.98"><defs><style>.cls-1{fill:#1d2d50;}</style></defs><title>your-house-logo</title><polygon class="cls-1" points="0 60.98 30.83 29.44 61.65 60.98 57.95 60.98 30.83 33.23 3.7 60.98 0 60.98"/><polygon class="cls-1" points="75.31 60.98 72.74 60.98 132.34 0 191.95 60.98 189.38 60.98 185.68 60.98 132.35 6.42 79.02 60.98 75.31 60.98"/><polygon class="cls-1" points="74.95 40.05 35.46 30.56 65.19 60.98 69.2 60.98 121.21 7.77 74.95 40.05"/><polygon class="cls-1" points="30.83 39.18 42.84 47.68 30.83 35.39 18.81 47.68 30.83 39.18"/><polygon class="cls-1" points="132.35 10.87 106.03 38.45 132.35 15.19 158.66 38.45 132.35 10.87"/><rect class="cls-1" x="26.78" y="47" width="3.6" height="3.6"/><rect class="cls-1" x="31.28" y="47" width="3.6" height="3.6"/><rect class="cls-1" x="26.78" y="51.39" width="3.6" height="3.6"/><rect class="cls-1" x="31.28" y="51.39" width="3.6" height="3.6"/><rect class="cls-1" x="122.8" y="32.07" width="8.48" height="8.48"/><rect class="cls-1" x="133.41" y="32.07" width="8.48" height="8.48"/><rect class="cls-1" x="122.8" y="42.43" width="8.48" height="8.48"/><rect class="cls-1" x="133.41" y="42.43" width="8.48" height="8.48"/></svg>